<svg width="82" height="40" viewBox="0 0 82 40" fill="none" xmlns="http://www.w3.org/2000/svg">
<rect x="2" width="72" height="40" rx="20" fill="#A8A8A8"/>
<circle cx="22" cy="20" r="16" fill="white"/>
<path d="M46.304 26.112C45.248 26.112 44.2773 25.8667 43.392 25.376C42.5173 24.8853 41.8187 24.2027 41.296 23.328C40.784 22.4427 40.528 21.4507 40.528 20.352C40.528 19.2533 40.784 18.2667 41.296 17.392C41.8187 16.5173 42.5173 15.8347 43.392 15.344C44.2773 14.8533 45.248 14.608 46.304 14.608C47.36 14.608 48.3253 14.8533 49.2 15.344C50.0853 15.8347 50.7787 16.5173 51.28 17.392C51.792 18.2667 52.048 19.2533 52.048 20.352C52.048 21.4507 51.792 22.4427 51.28 23.328C50.768 24.2027 50.0747 24.8853 49.2 25.376C48.3253 25.8667 47.36 26.112 46.304 26.112ZM46.304 23.616C47.2 23.616 47.9147 23.3173 48.448 22.72C48.992 22.1227 49.264 21.3333 49.264 20.352C49.264 19.36 48.992 18.5707 48.448 17.984C47.9147 17.3867 47.2 17.088 46.304 17.088C45.3973 17.088 44.672 17.3813 44.128 17.968C43.5947 18.5547 43.328 19.3493 43.328 20.352C43.328 21.344 43.5947 22.1387 44.128 22.736C44.672 23.3227 45.3973 23.616 46.304 23.616ZM60.8821 14.768V16.96H56.3061V19.328H59.7301V21.456H56.3061V26H53.5701V14.768H60.8821ZM69.6321 14.768V16.96H65.0561V19.328H68.4801V21.456H65.0561V26H62.3201V14.768H69.6321Z" fill="white"/>
</svg>
