<svg width="72" height="40" viewBox="0 0 72 40" fill="none" xmlns="http://www.w3.org/2000/svg">
<rect width="72" height="40" rx="20" fill="#415A80"/>
<ellipse cx="52" cy="20.0793" rx="16" ry="16.5079" fill="white"/>
<path d="M11.304 26.112C10.248 26.112 9.27733 25.8667 8.392 25.376C7.51733 24.8853 6.81867 24.2027 6.296 23.328C5.784 22.4427 5.528 21.4507 5.528 20.352C5.528 19.2533 5.784 18.2667 6.296 17.392C6.81867 16.5173 7.51733 15.8347 8.392 15.344C9.27733 14.8533 10.248 14.608 11.304 14.608C12.36 14.608 13.3253 14.8533 14.2 15.344C15.0853 15.8347 15.7787 16.5173 16.28 17.392C16.792 18.2667 17.048 19.2533 17.048 20.352C17.048 21.4507 16.792 22.4427 16.28 23.328C15.768 24.2027 15.0747 24.8853 14.2 25.376C13.3253 25.8667 12.36 26.112 11.304 26.112ZM11.304 23.616C12.2 23.616 12.9147 23.3173 13.448 22.72C13.992 22.1227 14.264 21.3333 14.264 20.352C14.264 19.36 13.992 18.5707 13.448 17.984C12.9147 17.3867 12.2 17.088 11.304 17.088C10.3973 17.088 9.672 17.3813 9.128 17.968C8.59467 18.5547 8.328 19.3493 8.328 20.352C8.328 21.344 8.59467 22.1387 9.128 22.736C9.672 23.3227 10.3973 23.616 11.304 23.616ZM28.6181 26H25.8821L21.3061 19.072V26H18.5701V14.768H21.3061L25.8821 21.728V14.768H28.6181V26Z" fill="white"/>
</svg>
