<svg width="26" height="24" viewBox="0 0 26 24" fill="none" xmlns="http://www.w3.org/2000/svg">
<path d="M10.7581 1.95083C11.7409 0.202262 14.2575 0.202262 15.2404 1.95083L25.1661 19.5965C26.1307 21.3108 24.8918 23.4285 22.9261 23.4285H3.07238C1.10552 23.4285 -0.133339 21.3108 0.831232 19.5965L10.7569 1.95083H10.7581ZM13.0004 8.05712C12.773 8.05712 12.555 8.14742 12.3943 8.30817C12.2335 8.46892 12.1432 8.68693 12.1432 8.91426V14.6285C12.1432 14.8559 12.2335 15.0739 12.3943 15.2346C12.555 15.3954 12.773 15.4857 13.0004 15.4857C13.2277 15.4857 13.4457 15.3954 13.6065 15.2346C13.7672 15.0739 13.8575 14.8559 13.8575 14.6285V8.91426C13.8575 8.68693 13.7672 8.46892 13.6065 8.30817C13.4457 8.14742 13.2277 8.05712 13.0004 8.05712ZM14.1432 18.3428C14.1432 18.0397 14.0228 17.749 13.8085 17.5347C13.5942 17.3204 13.3035 17.2 13.0004 17.2C12.6973 17.2 12.4066 17.3204 12.1923 17.5347C11.9779 17.749 11.8575 18.0397 11.8575 18.3428C11.8575 18.6459 11.9779 18.9366 12.1923 19.151C12.4066 19.3653 12.6973 19.4857 13.0004 19.4857C13.3035 19.4857 13.5942 19.3653 13.8085 19.151C14.0228 18.9366 14.1432 18.6459 14.1432 18.3428Z" fill="#C9161D"/>
</svg>
