<?xml version="1.0" standalone="no"?>
<!DOCTYPE svg PUBLIC "-//W3C//DTD SVG 20010904//EN"
 "http://www.w3.org/TR/2001/REC-SVG-20010904/DTD/svg10.dtd">
<svg version="1.0" xmlns="http://www.w3.org/2000/svg"
 width="513.000000pt" height="513.000000pt" viewBox="0 0 513.000000 513.000000"
 preserveAspectRatio="xMidYMid meet">
<metadata>
Created by potrace 1.14, written by Peter Selinger 2001-2017
</metadata>
<g transform="translate(0.000000,513.000000) scale(0.100000,-0.100000)"
fill="#000000" stroke="none">
<path d="M2488 5083 c-61 -56 -150 -149 -161 -168 -8 -14 -33 -21 -112 -31
-401 -47 -861 -249 -1199 -524 -134 -108 -298 -277 -390 -400 -22 -30 -44 -57
-47 -60 -8 -7 -104 -152 -112 -170 -4 -8 -16 -28 -27 -45 -57 -88 -170 -342
-213 -480 -25 -79 -65 -236 -71 -280 -3 -22 -10 -65 -16 -95 -24 -128 -33
-464 -16 -610 13 -121 12 -113 31 -227 2 -13 6 -26 8 -30 3 -5 8 -24 11 -43
11 -68 25 -122 43 -170 3 -8 8 -23 9 -32 2 -9 21 -63 43 -120 93 -246 227
-483 385 -678 61 -75 250 -270 316 -326 74 -62 227 -174 238 -174 7 0 12 -4
12 -8 0 -5 12 -15 28 -23 15 -8 42 -24 60 -36 59 -39 229 -123 343 -168 200
-81 414 -134 639 -159 126 -14 461 -15 550 -1 498 74 843 213 1206 486 90 68
314 280 393 372 79 92 282 395 286 427 1 3 13 28 27 55 103 200 195 482 224
685 2 19 6 44 9 55 26 133 27 615 0 715 -2 8 -7 35 -10 60 -3 25 -8 53 -11 62
-3 9 -6 25 -8 35 -2 10 -9 36 -14 58 -6 22 -13 51 -16 65 -16 87 -140 406
-186 480 -5 8 -16 29 -25 45 -23 48 -58 107 -82 142 -13 17 -23 36 -23 41 0 6
-4 12 -8 14 -5 2 -23 26 -42 53 -90 134 -298 359 -437 472 l-62 51 29 12 c68
28 62 54 -25 95 -68 32 -113 76 -149 145 -52 100 -70 103 -111 16 -14 -31 -30
-58 -35 -61 -5 -3 -64 21 -132 54 -238 115 -466 186 -723 225 -113 17 -108 14
-170 84 -85 95 -162 162 -186 162 -11 0 -43 -21 -71 -47z"/>
</g>
</svg>
